<svg width="0" height="0" class="hidden">
  <symbol id="eye-off" fill="none" xmlns="http://www.w3.org/2000/svg" viewBox="0 0 15 15">
    <g clip-path="url(#clip0_29_282)">
      <path
        d="M11.2125 11.2125C10.1441 12.0269 8.84319 12.4781 7.5 12.5C3.125 12.5 0.625 7.50002 0.625 7.50002C1.40243 6.0512 2.48071 4.7854 3.7875 3.78752M6.1875 2.65002C6.61771 2.54932 7.05817 2.49898 7.5 2.50002C11.875 2.50002 14.375 7.50002 14.375 7.50002C13.9956 8.20977 13.5432 8.87798 13.025 9.49377M8.825 8.82502C8.65334 9.00923 8.44634 9.15699 8.21635 9.25947C7.98635 9.36195 7.73806 9.41705 7.48631 9.42149C7.23455 9.42594 6.98448 9.37962 6.75101 9.28532C6.51754 9.19102 6.30545 9.05066 6.1274 8.87261C5.94936 8.69456 5.809 8.48248 5.71469 8.24901C5.62039 8.01554 5.57408 7.76547 5.57852 7.51371C5.58296 7.26195 5.63807 7.01367 5.74055 6.78367C5.84303 6.55367 5.99078 6.34667 6.175 6.17502"
        stroke="currentColor" stroke-linecap="round" stroke-linejoin="round"></path>
      <path d="M0.625 0.625L14.375 14.375" stroke="currentColor" stroke-linecap="round"
        stroke-linejoin="round"></path>
    </g>
    <defs>
      <clipPath id="clip0_29_282">
        <rect width="15" height="15" fill="currentColor"></rect>
      </clipPath>
    </defs>
  </symbol>
  <symbol id="double-check" fill="none" xmlns="http://www.w3.org/2000/svg" viewBox="0 0 16 14">
    <path d="M11.5555 4L4.71109 10.4167L1.59998 7.5" stroke="currentColor" stroke-linecap="round"
      stroke-linejoin="round"></path>
    <path d="M13.6888 4L6.84439 10.4167L3.73328 7.5" stroke="currentColor" stroke-linecap="round"
      stroke-linejoin="round"></path>
  </symbol>
  <symbol id="smile" fill="none" xmlns="http://www.w3.org/2000/svg" viewBox="0 0 20 20">
    <path
      d="M9.99996 18.3334C14.6023 18.3334 18.3333 14.6024 18.3333 10C18.3333 5.39765 14.6023 1.66669 9.99996 1.66669C5.39759 1.66669 1.66663 5.39765 1.66663 10C1.66663 14.6024 5.39759 18.3334 9.99996 18.3334Z"
      stroke="currentColor" stroke-linecap="round" stroke-linejoin="round"></path>
    <path
      d="M6.66663 11.6667C6.66663 11.6667 7.91663 13.3334 9.99996 13.3334C12.0833 13.3334 13.3333 11.6667 13.3333 11.6667"
      stroke="currentColor" stroke-linecap="round" stroke-linejoin="round"></path>
    <path d="M7.5 7.5H7.50833" stroke="currentColor" stroke-width="2" stroke-linecap="round"
      stroke-linejoin="round"></path>
    <path d="M12.5 7.5H12.5083" stroke="currentColor" stroke-width="2" stroke-linecap="round"
      stroke-linejoin="round"></path>
  </symbol>
  <symbol id="back" fill="none" xmlns="http://www.w3.org/2000/svg" viewBox="0 0 20 20">
    <g clip-path="url(#clip0_31_398)">
      <path
        d="M16.6666 9.16668H6.52492L11.1833 4.50834L9.99992 3.33334L3.33325 10L9.99992 16.6667L11.1749 15.4917L6.52492 10.8333H16.6666V9.16668Z"
        fill="currentColor"></path>
    </g>
    <defs>
      <clipPath id="clip0_31_398">
        <rect width="20" height="20" fill="currentColor"></rect>
      </clipPath>
    </defs>
  </symbol>
  <symbol id="eye" fill="none" xmlns="http://www.w3.org/2000/svg" viewBox="0 0 15 15">
    <path
      d="M0.625 7.5C0.625 7.5 3.125 2.5 7.5 2.5C11.875 2.5 14.375 7.5 14.375 7.5C14.375 7.5 11.875 12.5 7.5 12.5C3.125 12.5 0.625 7.5 0.625 7.5Z"
      stroke="currentColor" stroke-linecap="round" stroke-linejoin="round"></path>
    <path
      d="M7.5 9.375C8.53553 9.375 9.375 8.53553 9.375 7.5C9.375 6.46447 8.53553 5.625 7.5 5.625C6.46447 5.625 5.625 6.46447 5.625 7.5C5.625 8.53553 6.46447 9.375 7.5 9.375Z"
      stroke="currentColor" stroke-linecap="round" stroke-linejoin="round"></path>
  </symbol>
  <symbol id="image" xmlns="http://www.w3.org/2000/svg" fill="none" stroke="currentColor" stroke-width="1.5"
    stroke-linecap="round" stroke-linejoin="round" viewBox="0 0 24 24">
    <rect x="3" y="3" width="18" height="18" rx="2"></rect>
    <circle cx="8.5" cy="8.5" r="1.5"></circle>
    <path d="M20.4 14.5L16 10 4 20"></path>
  </symbol>
  <symbol id="loader" xmlns="http://www.w3.org/2000/svg" fill="none" stroke="white" stroke-width="1.5"
    stroke-linecap="round" stroke-linejoin="round" viewBox="0 0 24 24">
    <line x1="12" y1="2" x2="12" y2="6"></line>
    <line x1="12" y1="18" x2="12" y2="22"></line>
    <line x1="4.93" y1="4.93" x2="7.76" y2="7.76"></line>
    <line x1="16.24" y1="16.24" x2="19.07" y2="19.07"></line>
    <line x1="2" y1="12" x2="6" y2="12"></line>
    <line x1="18" y1="12" x2="22" y2="12"></line>
    <line x1="4.93" y1="19.07" x2="7.76" y2="16.24"></line>
    <line x1="16.24" y1="7.76" x2="19.07" y2="4.93"></line>
  </symbol>
  <symbol id="arrow-right-circle" xmlns="http://www.w3.org/2000/svg" fill="none" stroke="currentColor" stroke-width="1.5"
    stroke-linecap="round" stroke-linejoin="round" viewBox="0 0 24 24">
    <circle cx="12" cy="12" r="10"></circle>
    <path d="M12 8l4 4-4 4M8 12h7"></path>
  </symbol>
  <symbol id="arrow-out" xmlns="http://www.w3.org/2000/svg" fill="none" stroke="currentColor" stroke-width="1.5"
    stroke-linecap="round" stroke-linejoin="round" viewBox="0 0 24 24">
    <path d="M10 3H6a2 2 0 0 0-2 2v14c0 1.1.9 2 2 2h4M16 17l5-5-5-5M19.8 12H9"></path>
  </symbol>
  <symbol id="alert-circle" xmlns="http://www.w3.org/2000/svg" fill="none" stroke="currentColor" stroke-width="1.5"
    stroke-linecap="round" stroke-linejoin="round" viewBox="0 0 24 24">
    <circle cx="12" cy="12" r="10"></circle>
    <line x1="12" y1="8" x2="12" y2="12"></line>
    <line x1="12" y1="16" x2="12.01" y2="16"></line>
  </symbol>
  <symbol id="check" xmlns="http://www.w3.org/2000/svg" fill="none" stroke="currentColor" stroke-width="1.5"
    stroke-linecap="round" stroke-linejoin="round" viewBox="0 0 24 24">
    <polyline points="20 6 9 17 4 12"></polyline>
  </symbol>
  <symbol id="sun" xmlns="http://www.w3.org/2000/svg" fill="none" stroke="currentColor" stroke-width="1.5"
    stroke-linecap="round" stroke-linejoin="round" viewBox="0 0 24 24">
    <circle cx="12" cy="12" r="5"></circle>
    <path
      d="M12 1v2M12 21v2M4.2 4.2l1.4 1.4M18.4 18.4l1.4 1.4M1 12h2M21 12h2M4.2 19.8l1.4-1.4M18.4 5.6l1.4-1.4"></path>
  </symbol>
  <symbol id="moon" xmlns="http://www.w3.org/2000/svg" fill="none" stroke="currentColor" stroke-width="1.5"
    stroke-linecap="round" stroke-linejoin="round" viewBox="0 0 24 24">
    <path d="M21 12.79A9 9 0 1 1 11.21 3 7 7 0 0 0 21 12.79z"></path>
  </symbol>
  <symbol id="pause" xmlns="http://www.w3.org/2000/svg" fill="none" stroke="currentColor" stroke-width="1.5"
    stroke-linecap="round" stroke-linejoin="round" viewBox="0 0 24 24">
    <rect x="6" y="4" width="4" height="16"></rect>
    <rect x="14" y="4" width="4" height="16"></rect>
  </symbol>
  <symbol id="play" xmlns="http://www.w3.org/2000/svg" fill="none" stroke="currentColor" stroke-width="1.5"
    stroke-linecap="round" stroke-linejoin="round" viewBox="0 0 24 24">
    <polygon points="5 3 19 12 5 21 5 3"></polygon>
  </symbol>
  <symbol id="mic" xmlns="http://www.w3.org/2000/svg" fill="none" stroke="currentColor" stroke-width="1.5"
    stroke-linecap="round" stroke-linejoin="round" viewBox="0 0 24 24">
    <path d="M12 2c-1.7 0-3 1.2-3 2.6v6.8c0 1.4 1.3 2.6 3 2.6s3-1.2 3-2.6V4.6C15 3.2 13.7 2 12 2z"></path>
    <path d="M19 10v1a7 7 0 0 1-14 0v-1M12 18.4v3.3M8 22h8"></path>
  </symbol>
  <symbol id="paperclip" xmlns="http://www.w3.org/2000/svg" fill="none" stroke="currentColor" stroke-width="1.5"
    stroke-linecap="round" stroke-linejoin="round" viewBox="0 0 24 24">
    <path
      d="M21.44 11.05l-9.19 9.19a6 6 0 0 1-8.49-8.49l9.19-9.19a4 4 0 0 1 5.66 5.66l-9.2 9.19a2 2 0 0 1-2.83-2.83l8.49-8.48"></path>
  </symbol>
  <symbol id="users" xmlns="http://www.w3.org/2000/svg" fill="none" stroke="currentColor" stroke-width="1.5"
    stroke-linecap="round" stroke-linejoin="round" viewBox="0 0 24 24">
    <path d="M17 21v-2a4 4 0 0 0-4-4H5a4 4 0 0 0-4 4v2"></path>
    <circle cx="9" cy="7" r="4"></circle>
    <path d="M23 21v-2a4 4 0 0 0-3-3.87"></path>
    <path d="M16 3.13a4 4 0 0 1 0 7.75"></path>
  </symbol>
  <symbol id="user-plus" xmlns="http://www.w3.org/2000/svg" fill="none" stroke="currentColor" stroke-width="1.5"
    stroke-linecap="round" stroke-linejoin="round" viewBox="0 0 24 24">
    <path d="M16 21v-2a4 4 0 0 0-4-4H5a4 4 0 0 0-4 4v2"></path>
    <circle cx="8.5" cy="7" r="4"></circle>
    <line x1="20" y1="8" x2="20" y2="14"></line>
    <line x1="23" y1="11" x2="17" y2="11"></line>
  </symbol>
  <symbol id="edit" xmlns="http://www.w3.org/2000/svg" fill="none" stroke="currentColor" stroke-width="1.5"
    stroke-linecap="round" stroke-linejoin="round" viewBox="0 0 24 24">
    <polygon points="16 3 21 8 8 21 3 21 3 16 16 3"></polygon>
  </symbol>
  <symbol id="trash" xmlns="http://www.w3.org/2000/svg" fill="none" stroke="currentColor" stroke-width="1.5"
    stroke-linecap="round" stroke-linejoin="round" viewBox="0 0 24 24">
    <polyline points="3 6 5 6 21 6"></polyline>
    <path d="M19 6v14a2 2 0 0 1-2 2H7a2 2 0 0 1-2-2V6m3 0V4a2 2 0 0 1 2-2h4a2 2 0 0 1 2 2v2"></path>
    <line x1="10" y1="11" x2="10" y2="17"></line>
    <line x1="14" y1="11" x2="14" y2="17"></line>
  </symbol>
  <symbol id="close" xmlns="http://www.w3.org/2000/svg" fill="none" stroke="currentColor" stroke-width="1.5"
    stroke-linecap="round" stroke-linejoin="round" viewBox="0 0 24 24">
    <line x1="18" y1="6" x2="6" y2="18"></line>
    <line x1="6" y1="6" x2="18" y2="18"></line>
  </symbol>
  <symbol id="search" xmlns="http://www.w3.org/2000/svg" fill="none" stroke="currentColor" stroke-width="1.5"
    stroke-linecap="round" stroke-linejoin="round" viewBox="0 0 24 24">
    <circle cx="11" cy="11" r="8"></circle>
    <line x1="21" y1="21" x2="16.65" y2="16.65"></line>
  </symbol>
  <symbol id="more-vertical" xmlns="http://www.w3.org/2000/svg" fill="none" stroke="currentColor" stroke-width="1.5"
    stroke-linecap="round" stroke-linejoin="round" viewBox="0 0 24 24">
    <circle cx="12" cy="12" r="1"></circle>
    <circle cx="12" cy="5" r="1"></circle>
    <circle cx="12" cy="19" r="1"></circle>
  </symbol>
  <symbol id="menu" xmlns="http://www.w3.org/2000/svg" fill="none" stroke="currentColor" stroke-width="1.5"
    stroke-linecap="round" stroke-linejoin="round" viewBox="0 0 24 24">
    <line x1="3" y1="12" x2="21" y2="12"></line>
    <line x1="3" y1="6" x2="21" y2="6"></line>
    <line x1="3" y1="18" x2="21" y2="18"></line>
  </symbol>
  <symbol id="settings" xmlns="http://www.w3.org/2000/svg" fill="none" stroke="currentColor" stroke-width="1.5"
    stroke-linecap="round" stroke-linejoin="round" viewBox="0 0 24 24">
    <circle cx="12" cy="12" r="3"></circle>
    <path
      d="M19.4 15a1.65 1.65 0 0 0 .33 1.82l.06.06a2 2 0 0 1 0 2.83 2 2 0 0 1-2.83 0l-.06-.06a1.65 1.65 0 0 0-1.82-.33 1.65 1.65 0 0 0-1 1.51V21a2 2 0 0 1-2 2 2 2 0 0 1-2-2v-.09A1.65 1.65 0 0 0 9 19.4a1.65 1.65 0 0 0-1.82.33l-.06.06a2 2 0 0 1-2.83 0 2 2 0 0 1 0-2.83l.06-.06a1.65 1.65 0 0 0 .33-1.82 1.65 1.65 0 0 0-1.51-1H3a2 2 0 0 1-2-2 2 2 0 0 1 2-2h.09A1.65 1.65 0 0 0 4.6 9a1.65 1.65 0 0 0-.33-1.82l-.06-.06a2 2 0 0 1 0-2.83 2 2 0 0 1 2.83 0l.06.06a1.65 1.65 0 0 0 1.82.33H9a1.65 1.65 0 0 0 1-1.51V3a2 2 0 0 1 2-2 2 2 0 0 1 2 2v.09a1.65 1.65 0 0 0 1 1.51 1.65 1.65 0 0 0 1.82-.33l.06-.06a2 2 0 0 1 2.83 0 2 2 0 0 1 0 2.83l-.06.06a1.65 1.65 0 0 0-.33 1.82V9a1.65 1.65 0 0 0 1.51 1H21a2 2 0 0 1 2 2 2 2 0 0 1-2 2h-.09a1.65 1.65 0 0 0-1.51 1z"></path>
  </symbol>
</svg>
